<svg width="120" height="120" viewBox="0 0 120 120" fill="none" xmlns="http://www.w3.org/2000/svg">
<rect width="120" height="120" fill="url(#paint0_linear_0_1)"/>
<path d="M60.3923 14C35.3262 14 15.0001 34.4022 15.0001 59.5767C15.0001 79.7095 28.0046 96.7921 46.0493 102.818C48.3175 103.238 49.1449 101.831 49.1449 100.621C49.1449 99.5407 49.1053 96.675 49.0834 92.8707C36.4537 95.628 33.7901 86.7616 33.7901 86.7616C31.7284 81.496 28.7529 80.0975 28.7529 80.0975C24.6294 77.2685 29.0633 77.3227 29.0633 77.3227C33.6173 77.6434 36.0144 82.0216 36.0144 82.0216C40.0676 88.9859 46.6424 86.9725 49.2283 85.8054C49.6369 82.8622 50.8127 80.8517 52.1086 79.7139C42.0313 78.5615 31.4355 74.6547 31.4355 57.1928C31.4355 52.2185 33.2029 48.1492 36.1067 44.9599C35.6366 43.8075 34.08 39.1759 36.5489 32.9028C36.5489 32.9028 40.3619 31.6786 49.0321 37.5739C52.6534 36.5636 56.5367 36.0584 60.3981 36.0379C64.2507 36.0584 68.137 36.5621 71.7641 37.5739C80.427 31.6786 84.2342 32.9028 84.2342 32.9028C86.7089 39.1759 85.1523 43.8075 84.6837 44.9599C87.5948 48.1492 89.3519 52.2171 89.3519 57.1928C89.3519 74.6986 78.7386 78.5498 68.6261 79.6802C70.2559 81.0874 71.707 83.8667 71.707 88.1205C71.707 94.215 71.6528 99.1263 71.6528 100.621C71.6528 101.843 72.4714 103.261 74.7733 102.812C92.7945 96.7746 105.787 79.7036 105.787 59.5767C105.787 34.4022 85.4613 14 60.3923 14Z" fill="url(#paint1_linear_0_1)"/>
<path d="M60.3923 14C35.3262 14 15.0001 34.4022 15.0001 59.5767C15.0001 79.7095 28.0046 96.7921 46.0493 102.818C48.3175 103.238 49.1449 101.831 49.1449 100.621C49.1449 99.5407 49.1053 96.675 49.0834 92.8707C36.4537 95.628 33.7901 86.7616 33.7901 86.7616C31.7284 81.496 28.7529 80.0975 28.7529 80.0975C24.6294 77.2685 29.0633 77.3227 29.0633 77.3227C33.6173 77.6434 36.0144 82.0216 36.0144 82.0216C40.0676 88.9859 46.6424 86.9725 49.2283 85.8054C49.6369 82.8622 50.8127 80.8517 52.1086 79.7139C42.0313 78.5615 31.4355 74.6547 31.4355 57.1928C31.4355 52.2185 33.2029 48.1492 36.1067 44.9599C35.6366 43.8075 34.08 39.1759 36.5489 32.9028C36.5489 32.9028 40.3619 31.6786 49.0321 37.5739C52.6534 36.5636 56.5367 36.0584 60.3981 36.0379C64.2507 36.0584 68.137 36.5621 71.7641 37.5739C80.427 31.6786 84.2342 32.9028 84.2342 32.9028C86.7089 39.1759 85.1523 43.8075 84.6837 44.9599C87.5948 48.1492 89.3519 52.2171 89.3519 57.1928C89.3519 74.6986 78.7386 78.5498 68.6261 79.6802C70.2559 81.0874 71.707 83.8667 71.707 88.1205C71.707 94.215 71.6528 99.1263 71.6528 100.621C71.6528 101.843 72.4714 103.261 74.7733 102.812C92.7945 96.7746 105.787 79.7036 105.787 59.5767C105.787 34.4022 85.4613 14 60.3923 14Z" fill="url(#paint2_linear_0_1)"/>
<path d="M84.2796 33.0302C86.6825 39.2359 85.1494 43.8163 84.6822 44.9599C87.5933 48.1492 89.3505 52.2171 89.3505 57.1928C89.3505 74.6986 78.7371 78.5498 68.6246 79.6802C70.2544 81.0874 71.7055 83.8667 71.7055 88.1205C71.7055 94.215 71.6513 99.1263 71.6513 100.621C71.6513 101.843 72.4699 103.261 74.7718 102.812C92.7945 96.7746 105.787 79.7036 105.787 59.5767C105.787 54.1661 104.844 48.9795 103.121 44.1648C96.8624 37.5754 89.8967 33.1869 84.2796 33.0302ZM50.3222 82.1198C50.8318 81.0918 51.4541 80.2923 52.1086 79.7139C46.5853 79.0813 40.9125 77.6068 36.9076 73.5374C39.9885 78.6655 45.0053 80.9981 50.3222 82.1198Z" fill="url(#paint3_linear_0_1)"/>
<path d="M17.3635 62.6488C17.3635 37.4744 37.6896 17.0721 62.7556 17.0721C76.6739 17.0721 89.1235 23.3672 97.4481 33.2689C89.226 21.613 75.6987 14 60.3922 14C35.3262 14 15.0001 34.4023 15.0001 59.5767C14.9829 70.3516 18.7941 80.7823 25.754 89.0079C20.2855 81.3071 17.3528 72.0937 17.3635 62.6488Z" fill="url(#paint4_linear_0_1)"/>
<path d="M74.0689 91.1941C74.0689 86.9417 72.6178 84.1581 70.988 82.7509C81.1006 81.6234 91.7153 77.7693 91.7153 60.2649C91.7153 55.2892 89.9582 51.2228 87.0442 48.0335C87.5157 46.8811 89.0752 42.248 86.5947 35.9764C86.5947 35.9764 86.1231 35.8314 85.1494 35.8871C86.2125 40.6168 85.0732 43.9993 84.6823 44.9599C87.5933 48.1492 89.3505 52.2171 89.3505 57.1928C89.3505 74.6986 78.7372 78.5498 68.6246 79.6802C70.2544 81.0874 71.7055 83.8667 71.7055 88.1205C71.7055 94.215 71.6514 99.1263 71.6514 100.621C71.6514 101.696 72.2913 102.922 74.0162 102.892C74.0279 100.832 74.0689 96.4583 74.0689 91.1941Z" fill="url(#paint5_linear_0_1)"/>
<path d="M36.5005 90.6626C37.4538 92.6247 40.6577 97.3252 49.1097 96.3353C49.098 95.3015 49.0892 94.1432 49.0834 92.8707C42.5628 94.294 38.7131 92.6159 36.5005 90.6626Z" fill="url(#paint6_linear_0_1)"/>
<path d="M38.1303 84.694C37.6615 83.9913 37.1148 83.3439 36.5005 82.764C37.0145 83.527 37.5607 84.1669 38.1303 84.694Z" fill="url(#paint7_linear_0_1)"/>
<defs>
<linearGradient id="paint0_linear_0_1" x1="60" y1="0" x2="60" y2="120" gradientUnits="userSpaceOnUse">
<stop stop-color="#6A657D"/>
<stop offset="1" stop-color="#1F1A2A"/>
</linearGradient>
<linearGradient id="paint1_linear_0_1" x1="60.3937" y1="14" x2="60.3937" y2="102.897" gradientUnits="userSpaceOnUse">
<stop stop-color="#A0A0A0"/>
<stop offset="1" stop-color="white"/>
</linearGradient>
<linearGradient id="paint2_linear_0_1" x1="60" y1="58" x2="17.5" y2="103" gradientUnits="userSpaceOnUse">
<stop stop-color="#A0A0A0"/>
<stop offset="1" stop-color="white"/>
</linearGradient>
<linearGradient id="paint3_linear_0_1" x1="71.3475" y1="33.0302" x2="71.3475" y2="102.897" gradientUnits="userSpaceOnUse">
<stop stop-color="#C9C9C9"/>
<stop offset="1" stop-color="#999999"/>
</linearGradient>
<linearGradient id="paint4_linear_0_1" x1="56.224" y1="14" x2="56.224" y2="89.0079" gradientUnits="userSpaceOnUse">
<stop stop-color="#F6F3FF"/>
<stop offset="1" stop-color="#1B1B1B"/>
</linearGradient>
<linearGradient id="paint5_linear_0_1" x1="80.17" y1="35.8743" x2="80.17" y2="102.893" gradientUnits="userSpaceOnUse">
<stop stop-color="#D3D3D3"/>
<stop offset="1" stop-color="#ACACAC"/>
</linearGradient>
<linearGradient id="paint6_linear_0_1" x1="42.8051" y1="90.6626" x2="42.8051" y2="96.4706" gradientUnits="userSpaceOnUse">
<stop stop-color="#C9C9C9"/>
<stop offset="1" stop-color="#999999"/>
</linearGradient>
<linearGradient id="paint7_linear_0_1" x1="37.3154" y1="82.764" x2="37.3154" y2="84.694" gradientUnits="userSpaceOnUse">
<stop stop-color="#F6F3FF"/>
<stop offset="1" stop-color="#1B1B1B"/>
</linearGradient>
</defs>
</svg>
