<svg width="120" height="120" viewBox="0 0 120 120" fill="none" xmlns="http://www.w3.org/2000/svg">
<rect width="120" height="120" fill="url(#paint0_linear_0_1)"/>
<path d="M103 65.6438V54.625C103 53.2812 101.925 52.2063 100.581 52.2063H90.3687C89.2937 52.2063 88.4875 51.6688 88.2188 50.5938C87.6812 49.25 87.1437 48.175 86.6062 46.8313C86.0687 46.025 86.3375 44.95 87.1438 44.1438L94.4 37.1562C95.2062 36.35 95.2062 34.7375 94.4 33.9313L86.6062 26.1375C85.8 25.3313 84.1875 25.3313 83.3813 26.1375L76.125 32.8563C75.3187 33.6625 74.2438 33.6625 73.4375 33.3937C72.0938 32.8562 71.0188 32.3188 69.675 31.7812C68.6 31.5125 68.0625 30.4375 68.0625 29.6312V19.4187C68.0625 18.075 66.9875 17 65.6438 17H54.625C53.2812 17 52.2063 18.075 52.2063 19.4187V29.3625C52.2063 30.4375 51.6688 31.2438 50.5938 31.5125C49.25 32.05 47.9063 32.5875 46.8313 33.125C46.025 33.6625 44.95 33.3938 44.1438 32.5875L36.8875 25.6C35.8125 24.7938 34.4687 24.7938 33.3937 25.6L25.6 33.6625C24.7938 34.4687 24.7938 35.8125 25.6 36.8875L32.8563 43.875C33.6625 44.6813 33.6625 45.7562 33.3937 46.5625C32.8562 47.9062 32.3188 48.9812 31.7812 50.325C31.5125 51.4 30.4375 51.9375 29.6312 51.9375H19.4187C18.075 51.9375 17 53.0125 17 54.3562V65.375C17 66.7188 18.075 67.7937 19.4187 67.7937H29.6312C30.7062 67.7937 31.5125 68.3312 31.7812 69.4062C32.05 70.75 32.5875 72.0937 33.125 73.1687C33.6625 73.975 33.3938 75.05 32.5875 75.8562L25.3312 82.8438C24.525 83.65 24.525 85.2625 25.3312 86.0688L33.125 93.8625C33.9313 94.6688 35.5437 94.6688 36.35 93.8625L43.6062 86.875C44.4125 86.0687 45.4875 86.0687 46.2937 86.3375C47.6375 86.875 48.7125 87.4125 50.0563 87.95C51.1313 88.2187 51.6687 89.2938 51.6687 90.1V100.044C51.6687 101.387 52.7438 102.462 54.0875 102.462H65.1062C66.45 102.462 67.525 101.387 67.525 100.044V90.1C67.525 89.025 68.0625 88.2187 69.1375 87.95C70.4812 87.4125 71.825 86.875 72.9 86.3375C73.7062 85.8 74.7812 86.0687 75.5875 86.875L82.8438 93.8625C83.65 94.6688 85.2625 94.6688 86.0688 93.8625L93.8625 86.0688C94.6688 85.2625 94.6688 83.65 93.8625 82.8438L87.1438 76.125C86.3375 75.3187 86.3375 74.2438 86.6062 73.4375C87.1437 72.3625 87.6812 71.0188 88.2188 69.675C88.4875 68.6 89.5625 68.0625 90.3687 68.0625H100.581C101.925 67.7937 103 66.7188 103 65.6438Z" fill="url(#paint1_radial_0_1)"/>
<path d="M31.7812 69.4062C32.05 70.75 32.5875 72.0937 33.125 73.1687C33.3938 72.6312 33.3938 71.825 33.125 71.0187C32.5875 69.675 32.05 68.6 31.5125 67.2562C31.2438 66.1812 30.1687 65.6437 29.3625 65.6437H19.4187C18.075 65.6437 17 64.5687 17 63.225V65.1062C17 66.45 18.075 67.525 19.4187 67.525H29.6312C30.4375 67.7937 31.2437 68.6 31.7812 69.4062ZM52.2063 88.4875C52.2063 87.4125 51.6688 86.6062 50.5938 86.3375C49.25 85.8 47.9063 85.2625 46.8313 84.725C46.025 84.1875 44.95 84.4562 44.1438 85.2625L36.8875 92.25C36.0813 93.0562 34.4687 93.0562 33.6625 92.25L25.8687 84.4562C25.6 84.1875 25.6 83.9187 25.3312 83.9187C24.7937 84.725 25.0625 85.8 25.8687 86.6062L33.6625 94.4C34.4687 95.2062 36.0813 95.2062 36.8875 94.4L44.1438 87.4125C44.95 86.6062 46.025 86.6062 46.8313 86.875C48.175 87.4125 49.25 87.95 50.5938 88.4875C51.6688 88.7562 52.2063 89.8312 52.2063 90.6375V88.4875ZM65.6438 100.85H54.625C53.2812 100.85 52.2063 99.775 52.2063 98.4312V100.312C52.2063 101.656 53.2812 102.731 54.625 102.731H65.6438C66.9875 102.731 68.0625 101.656 68.0625 100.312V98.4312C67.7937 100.044 66.7188 100.85 65.6438 100.85ZM100.581 65.9125H90.3687C89.2937 65.9125 88.4875 66.45 88.2188 67.525C87.6812 68.8687 87.1437 69.9437 86.6062 71.2875C86.3375 71.825 86.3375 72.6312 86.6062 73.4375C87.1437 72.3625 87.6812 71.0187 88.2188 69.675C88.4875 68.6 89.5625 68.0625 90.3687 68.0625H100.581C101.925 68.0625 103 66.9875 103 65.6437V63.7625C103 64.8375 101.925 65.9125 100.581 65.9125ZM94.4 84.4562L86.6062 92.25C85.8 93.0562 84.1875 93.0562 83.3813 92.25L76.125 85.2625C75.3187 84.4562 74.2438 84.4562 73.4375 84.725C72.0938 85.2625 71.0188 85.8 69.675 86.3375C68.6 86.6062 68.0625 87.6812 68.0625 88.4875V90.3687C68.0625 89.2937 68.6 88.4875 69.675 88.2187C71.0188 87.6812 72.3625 87.1437 73.4375 86.6062C74.2438 86.0687 75.3187 86.3375 76.125 87.1437L83.3813 94.1312C84.1875 94.9375 85.8 94.9375 86.6062 94.1312L94.4 86.3375C95.2062 85.5312 95.2063 84.4562 94.9375 83.65C94.6687 83.9187 94.4 84.1875 94.4 84.4562Z" fill="#5B6BA1"/>
<path d="M60 76.125C68.9056 76.125 76.125 68.9056 76.125 60C76.125 51.0944 68.9056 43.875 60 43.875C51.0944 43.875 43.875 51.0944 43.875 60C43.875 68.9056 51.0944 76.125 60 76.125Z" fill="url(#paint2_linear_0_1)"/>
<defs>
<linearGradient id="paint0_linear_0_1" x1="60" y1="0" x2="60" y2="120" gradientUnits="userSpaceOnUse">
<stop stop-color="#DAE7FF"/>
<stop offset="1" stop-color="#8C9CBC"/>
</linearGradient>
<radialGradient id="paint1_radial_0_1" cx="0" cy="0" r="1" gradientUnits="userSpaceOnUse" gradientTransform="translate(60 59.7313) rotate(0.421861) scale(36.501 36.7306)">
<stop offset="0.37" stop-color="#A2AEE1"/>
<stop offset="1" stop-color="#8592C9"/>
</radialGradient>
<linearGradient id="paint2_linear_0_1" x1="60" y1="43.875" x2="60" y2="76.125" gradientUnits="userSpaceOnUse">
<stop stop-color="#5B6BA1"/>
<stop offset="1" stop-color="#384263"/>
</linearGradient>
</defs>
</svg>
